<?xml version="1.0" standalone="no"?><!DOCTYPE svg PUBLIC "-//W3C//DTD SVG 1.1//EN" "http://www.w3.org/Graphics/SVG/1.1/DTD/svg11.dtd"><svg t="1580362967568" class="icon" viewBox="0 0 1024 1024" version="1.1" xmlns="http://www.w3.org/2000/svg" p-id="5014" xmlns:xlink="http://www.w3.org/1999/xlink" width="200" height="200"><defs><style type="text/css"></style></defs><path d="M90.1 233.1h0.6c0.7 0 66.5-1 163.7-1.2 15 53.1 63.9 92.1 121.8 92.1 69.8 0 126.5-56.8 126.5-126.5S445.9 71 376.1 71c-57.4 0-106 38.4-121.4 90.9-98 0.2-164.4 1.2-165.2 1.2-19.3 0.3-34.7 16.2-34.4 35.6 0.3 19.1 15.9 34.4 35 34.4z m286-92.1c31.2 0 56.5 25.4 56.5 56.5S407.3 254 376.1 254s-56.5-25.4-56.5-56.5 25.3-56.5 56.5-56.5zM586.4 232.5h347.5c19.3 0 35-15.7 35-35s-15.7-35-35-35H586.4c-19.3 0-35 15.7-35 35s15.7 35 35 35zM935.4 467.4c-1.1 0-26-1.1-116.1-1.3-15.4-52.5-64-90.9-121.4-90.9-69.8 0-126.5 56.8-126.5 126.5 0 69.8 56.8 126.5 126.5 126.5 57.8 0 106.8-39 121.8-92.1 87.1 0.2 112.2 1.2 112.8 1.2h1.5c18.6 0 34.1-14.7 34.9-33.5 0.8-19.2-14.1-35.6-33.5-36.4z m-237.5 90.9c-31.2 0-56.5-25.4-56.5-56.5s25.4-56.5 56.5-56.5 56.5 25.4 56.5 56.5-25.3 56.5-56.5 56.5zM489.7 466.7H90.1c-19.3 0-35 15.7-35 35s15.7 35 35 35h399.6c19.3 0 35-15.7 35-35s-15.7-35-35-35zM376.1 700c-57.4 0-106 38.4-121.4 90.9-98 0.2-164.4 1.2-165.2 1.2-19.3 0.3-34.7 16.2-34.4 35.6 0.3 19.1 15.9 34.4 35 34.4h0.6c0.7 0 66.5-1 163.7-1.2 15 53.1 63.9 92.1 121.8 92.1 69.8 0 126.5-56.8 126.5-126.5-0.1-69.7-56.8-126.5-126.6-126.5z m0 183c-31.2 0-56.5-25.4-56.5-56.5S345 770 376.1 770s56.5 25.4 56.5 56.5-25.3 56.5-56.5 56.5zM933.9 791.5H586.4c-19.3 0-35 15.7-35 35s15.7 35 35 35h347.5c19.3 0 35-15.7 35-35s-15.6-35-35-35z" p-id="5015"></path></svg>