<?xml version="1.0" standalone="no"?><!DOCTYPE svg PUBLIC "-//W3C//DTD SVG 1.1//EN" "http://www.w3.org/Graphics/SVG/1.1/DTD/svg11.dtd"><svg t="1580359406223" class="icon" viewBox="0 0 1024 1024" version="1.1" xmlns="http://www.w3.org/2000/svg" p-id="2198" xmlns:xlink="http://www.w3.org/1999/xlink" width="200" height="200"><defs><style type="text/css"></style></defs><path d="M438 576c6.6 6.3 15.3 9.7 24.2 9.7 2.6 0 5.3-0.3 7.9-0.9l118.2-27.4c6.3-1.5 12.1-4.6 16.7-9.2l342.5-338.6c6.6-6.6 10.4-15.5 10.4-24.8s-3.7-18.3-10.3-24.8l-95.2-95.2c-13.6-13.6-35.7-13.7-49.4-0.1L460.6 403.3c-5.1 5-8.5 11.4-9.8 18.4l-23 122.6c-2.2 11.6 1.7 23.6 10.2 31.7z m79.6-130.6l310-306.4 45.7 45.7-310.4 306.9-56.4 13 11.1-59.2zM243.2 411.2v412c0 19.3 15.7 35 35 35s35-15.7 35-35v-412c0-19.3-15.7-35-35-35s-35 15.7-35 35zM485.7 685.7v137.5c0 19.3 15.7 35 35 35s35-15.7 35-35V685.7c0-19.3-15.7-35-35-35s-35 15.7-35 35zM728.2 548.6v274.6c0 19.3 15.7 35 35 35s35-15.7 35-35V548.6c0-19.3-15.7-35-35-35s-35 15.7-35 35z" p-id="2199"></path><path d="M928 556.1c-19.3 0-35 15.7-35 35v302.1H135v-613h271.7c19.3 0 35-15.7 35-35s-15.7-35-35-35H100c-19.3 0-35 15.7-35 35v683c0 19.3 15.7 35 35 35h828c19.3 0 35-15.7 35-35V591.1c0-19.3-15.7-35-35-35z" p-id="2200"></path></svg>