<?xml version="1.0" standalone="no"?><!DOCTYPE svg PUBLIC "-//W3C//DTD SVG 1.1//EN" "http://www.w3.org/Graphics/SVG/1.1/DTD/svg11.dtd"><svg t="1580441875898" class="icon" viewBox="0 0 1024 1024" version="1.1" xmlns="http://www.w3.org/2000/svg" p-id="1260" xmlns:xlink="http://www.w3.org/1999/xlink" width="200" height="200"><defs><style type="text/css"></style></defs><path d="M70.892308 693.169231l149.661538-157.538462c15.753846-15.753846 15.753846-47.261538 0-63.015384L70.892308 315.076923c-23.630769-15.753846-70.892308 7.876923-70.892308 39.384615v307.2c0 39.384615 47.261538 63.015385 70.892308 31.507693zM39.384615 0h945.23077c23.630769 0 39.384615 15.753846 39.384615 39.384615s-15.753846 39.384615-39.384615 39.384616H39.384615C15.753846 78.769231 0 63.015385 0 39.384615S15.753846 0 39.384615 0zM354.461538 472.615385h630.153847c23.630769 0 39.384615 15.753846 39.384615 39.384615s-15.753846 39.384615-39.384615 39.384615h-630.153847c-23.630769 0-39.384615-15.753846-39.384615-39.384615s15.753846-39.384615 39.384615-39.384615zM39.384615 945.230769h945.23077c23.630769 0 39.384615 15.753846 39.384615 39.384616s-15.753846 39.384615-39.384615 39.384615H39.384615c-23.630769 0-39.384615-15.753846-39.384615-39.384615s15.753846-39.384615 39.384615-39.384616z" p-id="1261" fill="#555555"></path></svg>