<?xml version="1.0" standalone="no"?><!DOCTYPE svg PUBLIC "-//W3C//DTD SVG 1.1//EN" "http://www.w3.org/Graphics/SVG/1.1/DTD/svg11.dtd"><svg t="1580441887320" class="icon" viewBox="0 0 1024 1024" version="1.1" xmlns="http://www.w3.org/2000/svg" p-id="1470" xmlns:xlink="http://www.w3.org/1999/xlink" width="200" height="200"><defs><style type="text/css"></style></defs><path d="M236.307692 669.538462v-315.076924c0-39.384615-47.261538-55.138462-70.892307-31.507692l-149.661539 157.538462c-15.753846 15.753846-15.753846 47.261538 0 63.015384l149.661539 157.538462c23.630769 23.630769 70.892308 0 70.892307-31.507692zM39.384615 0h945.23077c23.630769 0 39.384615 15.753846 39.384615 39.384615s-15.753846 39.384615-39.384615 39.384616H39.384615C15.753846 78.769231 0 63.015385 0 39.384615S15.753846 0 39.384615 0zM354.461538 472.615385h630.153847c23.630769 0 39.384615 15.753846 39.384615 39.384615s-15.753846 39.384615-39.384615 39.384615h-630.153847c-23.630769 0-39.384615-15.753846-39.384615-39.384615s15.753846-39.384615 39.384615-39.384615zM39.384615 945.230769h945.23077c23.630769 0 39.384615 15.753846 39.384615 39.384616s-15.753846 39.384615-39.384615 39.384615H39.384615c-23.630769 0-39.384615-15.753846-39.384615-39.384615s15.753846-39.384615 39.384615-39.384616z" p-id="1471" fill="#555555"></path></svg>