<?xml version="1.0" standalone="no"?><!DOCTYPE svg PUBLIC "-//W3C//DTD SVG 1.1//EN" "http://www.w3.org/Graphics/SVG/1.1/DTD/svg11.dtd"><svg t="1580441807448" class="icon" viewBox="0 0 1088 1024" version="1.1" xmlns="http://www.w3.org/2000/svg" p-id="1049" xmlns:xlink="http://www.w3.org/1999/xlink" width="212.5" height="200"><defs><style type="text/css"></style></defs><path d="M12.8 172.8a76.8 76.8 0 1 0 153.6 0 76.8 76.8 0 1 0-153.6 0Z" p-id="1050" fill="#555555"></path><path d="M12.8 492.8a76.8 76.8 0 1 0 153.6 0 76.8 76.8 0 1 0-153.6 0Z" p-id="1051" fill="#555555"></path><path d="M12.8 812.8a76.8 76.8 0 1 0 153.6 0 76.8 76.8 0 1 0-153.6 0Z" p-id="1052" fill="#555555"></path><path d="M326.4 140.8h723.2c19.2 0 38.4 19.2 38.4 38.4s-19.2 38.4-38.4 38.4H326.4c-19.2-6.4-38.4-25.6-38.4-44.8 0-19.2 6.4-32 38.4-32zM326.4 454.4h723.2c19.2 0 38.4 19.2 38.4 38.4s-19.2 38.4-38.4 38.4H326.4c-19.2 0-38.4-19.2-38.4-38.4s6.4-38.4 38.4-38.4zM326.4 774.4h723.2c19.2 0 38.4 19.2 38.4 38.4s-19.2 38.4-38.4 38.4H326.4c-19.2 0-38.4-19.2-38.4-38.4 0-32 6.4-38.4 38.4-38.4z" p-id="1053" fill="#555555"></path></svg>