<?xml version="1.0" standalone="no"?><!DOCTYPE svg PUBLIC "-//W3C//DTD SVG 1.1//EN" "http://www.w3.org/Graphics/SVG/1.1/DTD/svg11.dtd"><svg t="1580359338018" class="icon" viewBox="0 0 1024 1024" version="1.1" xmlns="http://www.w3.org/2000/svg" p-id="1949" xmlns:xlink="http://www.w3.org/1999/xlink" width="200" height="200"><defs><style type="text/css"></style></defs><path d="M819.4 366.8c-19.3 0-35 15.7-35 35v482.4H239.6V401.8c0-19.3-15.7-35-35-35s-35 15.7-35 35v517.4c0 19.3 15.7 35 35 35h614.8c19.3 0 35-15.7 35-35V401.8c0-19.3-15.7-35-35-35zM928 212H700.4V104.7c0-19.3-15.7-35-35-35H353.1c-19.3 0-35 15.7-35 35V212H96c-19.3 0-35 15.7-35 35s15.7 35 35 35H928c19.3 0 35-15.7 35-35s-15.7-35-35-35z m-539.9 0v-72.3h242.3V212H388.1z" p-id="1950"></path><path d="M430.2 694.3V399.7c0-19.3-15.7-35-35-35s-35 15.7-35 35v294.5c0 19.3 15.7 35 35 35s35-15.6 35-34.9zM663.8 694.3V399.7c0-19.3-15.7-35-35-35s-35 15.7-35 35v294.5c0 19.3 15.7 35 35 35s35-15.6 35-34.9z" p-id="1951"></path></svg>