<?xml version="1.0" standalone="no"?><!DOCTYPE svg PUBLIC "-//W3C//DTD SVG 1.1//EN" "http://www.w3.org/Graphics/SVG/1.1/DTD/svg11.dtd"><svg t="1580446953837" class="icon" viewBox="0 0 1024 1024" version="1.1" xmlns="http://www.w3.org/2000/svg" p-id="5526" xmlns:xlink="http://www.w3.org/1999/xlink" width="200" height="200"><defs><style type="text/css"></style></defs><path d="M957.9 908.2L833.4 783.7c56.4-66.7 92.7-151.4 98.6-245.3 14.6-232-161.7-431.9-393.8-446.5-9-0.6-17.9-0.8-26.8-0.8-220.4 0-405.7 171.5-419.7 394.5-14.6 232 161.7 431.9 393.8 446.5 9 0.6 17.9 0.8 26.8 0.8 102.8 0 197.9-37.3 271.6-99.8l124.5 124.5c6.8 6.8 15.8 10.3 24.7 10.3 9 0 17.9-3.4 24.7-10.3 13.7-13.6 13.7-35.7 0.1-49.4z m-206.2-140C686.4 829.3 601.4 863 512.3 863c-7.4 0-14.9-0.2-22.4-0.7-47.3-3-92.6-15.1-134.6-36-40.6-20.3-76.5-47.9-106.6-82.1-30.2-34.2-53.1-73.3-68.1-116.1-15.5-44.3-21.9-90.7-18.9-138 5.6-89.7 44.8-172.8 110.4-234.2 65.3-61.1 150.3-94.8 239.5-94.8 7.4 0 14.9 0.2 22.3 0.7 47.3 3 92.6 15.1 134.6 36 40.6 20.3 76.5 47.9 106.6 82.1 30.2 34.2 53.1 73.3 68.1 116.1 15.5 44.3 21.9 90.7 18.9 138-5.7 89.6-44.9 172.8-110.4 234.2z" p-id="5527"></path></svg>