<?xml version="1.0" standalone="no"?><!DOCTYPE svg PUBLIC "-//W3C//DTD SVG 1.1//EN" "http://www.w3.org/Graphics/SVG/1.1/DTD/svg11.dtd"><svg t="1580360325619" class="icon" viewBox="0 0 1024 1024" version="1.1" xmlns="http://www.w3.org/2000/svg" p-id="4320" xmlns:xlink="http://www.w3.org/1999/xlink" width="200" height="200"><defs><style type="text/css"></style></defs><path d="M868.6 192c0 10.2-3.9 20.5-11.7 28.3L220.3 856.8c-15.6 15.6-40.9 15.6-56.6 0s-15.6-40.9 0-56.6l636.5-636.5c15.6-15.6 40.9-15.6 56.6 0 7.9 7.9 11.8 18.1 11.8 28.3z" p-id="4321"></path><path d="M828.6 868.6c-10.2 0-20.5-3.9-28.3-11.7L163.8 220.3c-15.6-15.6-15.6-40.9 0-56.6s40.9-15.6 56.6 0l636.5 636.5c15.6 15.6 15.6 40.9 0 56.6-7.9 7.9-18.1 11.8-28.3 11.8z" p-id="4322"></path></svg>