<?xml version="1.0" standalone="no"?><!DOCTYPE svg PUBLIC "-//W3C//DTD SVG 1.1//EN" "http://www.w3.org/Graphics/SVG/1.1/DTD/svg11.dtd"><svg t="1580359466822" class="icon" viewBox="0 0 1024 1024" version="1.1" xmlns="http://www.w3.org/2000/svg" p-id="2823" xmlns:xlink="http://www.w3.org/1999/xlink" width="200" height="200"><defs><style type="text/css"></style></defs><path d="M279.5 354.3l198-162.8V734c0 19.3 15.7 35 35 35s35-15.7 35-35V191.6l197.1 162.6c6.5 5.4 14.4 8 22.3 8 10.1 0 20.1-4.3 27-12.7 12.3-14.9 10.2-37-4.7-49.3L534.7 90.4c-0.2-0.2-0.4-0.3-0.6-0.5-0.2-0.1-0.4-0.3-0.5-0.4-0.6-0.5-1.2-0.9-1.8-1.3-0.6-0.4-1.3-0.8-2-1.2-0.1-0.1-0.2-0.1-0.3-0.2-1.4-0.8-2.9-1.5-4.4-2.1h-0.1c-1.5-0.6-3.1-1.1-4.7-1.4h-0.2c-0.7-0.2-1.5-0.3-2.2-0.4h-0.2c-0.8-0.1-1.5-0.2-2.3-0.3h-0.3c-0.6 0-1.3-0.1-1.9-0.1h-3.1c-0.6 0-1.2 0.1-1.8 0.2-0.2 0-0.4 0-0.6 0.1l-2.1 0.3h-0.1c-0.7 0.1-1.4 0.3-2.1 0.5-0.1 0-0.3 0.1-0.4 0.1-1.5 0.4-2.9 0.9-4.3 1.5-0.1 0-0.1 0.1-0.2 0.1-1.5 0.6-2.9 1.4-4.3 2.2-1.4 0.9-2.8 1.8-4.1 2.9L235 300.3c-14.9 12.3-17.1 34.3-4.8 49.3 12.3 14.9 34.3 17 49.3 4.7z" p-id="2824"></path><path d="M925.8 598.2c-19.3 0-35 15.7-35 35v238.4H133.2V633.2c0-19.3-15.7-35-35-35s-35 15.7-35 35v273.4c0 19.3 15.7 35 35 35h827.5c19.3 0 35-15.7 35-35V633.2c0.1-19.3-15.6-35-34.9-35z" p-id="2825"></path></svg>