<?xml version="1.0" standalone="no"?><!DOCTYPE svg PUBLIC "-//W3C//DTD SVG 1.1//EN" "http://www.w3.org/Graphics/SVG/1.1/DTD/svg11.dtd"><svg t="1580361482470" class="icon" viewBox="0 0 1024 1024" version="1.1" xmlns="http://www.w3.org/2000/svg" p-id="4817" xmlns:xlink="http://www.w3.org/1999/xlink" width="200" height="200"><defs><style type="text/css"></style></defs><path d="M938.5 55.3h-853c-19.3 0-35 15.7-35 35v843.5c0 19.3 15.7 35 35 35h853c19.3 0 35-15.7 35-35V90.3c0-19.4-15.6-35-35-35z m-35 843.4h-783V125.3h783v773.4z" p-id="4818" fill="#ffffff"></path><path d="M221.7 552.1c19.3 0 35-15.7 35-35 0-64 52.1-116.1 116.1-116.1S489 453.1 489 517.1c0 19.3 15.7 35 35 35s35-15.7 35-35c0-69.2-37.9-129.7-94.1-161.7 14.7-19.3 23.4-43.4 23.4-69.5 0-63.5-51.7-115.1-115.1-115.1s-115.1 51.7-115.1 115.1c0 26 8.7 50 23.2 69.3-56.4 32-94.6 92.6-94.6 162 0 19.3 15.7 34.9 35 34.9z m151.5-311.4c24.9 0 45.1 20.3 45.1 45.1S398.1 331 373.2 331s-45.1-20.3-45.1-45.1 20.2-45.2 45.1-45.2zM645.8 488h136.5c19.3 0 35-15.7 35-35s-15.7-35-35-35H645.8c-19.3 0-35 15.7-35 35s15.7 35 35 35zM645.8 308.8h136.5c19.3 0 35-15.7 35-35s-15.7-35-35-35H645.8c-19.3 0-35 15.7-35 35s15.7 35 35 35zM221.7 667.1h578.9c19.3 0 35-15.7 35-35s-15.7-35-35-35H221.7c-19.3 0-35 15.7-35 35s15.7 35 35 35zM800.6 776.2H225.8c-19.3 0-35 15.7-35 35s15.7 35 35 35h574.8c19.3 0 35-15.7 35-35s-15.7-35-35-35z" p-id="4819" fill="#ffffff"></path></svg>