<?xml version="1.0" standalone="no"?><!DOCTYPE svg PUBLIC "-//W3C//DTD SVG 1.1//EN" "http://www.w3.org/Graphics/SVG/1.1/DTD/svg11.dtd"><svg t="1580359421349" class="icon" viewBox="0 0 1024 1024" version="1.1" xmlns="http://www.w3.org/2000/svg" p-id="2323" xmlns:xlink="http://www.w3.org/1999/xlink" width="200" height="200"><defs><style type="text/css"></style></defs><path d="M951.5 877.7l-87.9-79.9c24.2-37.2 37.2-80.6 37.2-126 0-61.9-24.1-120-67.8-163.7-43.7-43.7-101.9-67.8-163.7-67.8s-120 24.1-163.7 67.8-67.9 101.9-67.9 163.8 24.1 120 67.8 163.7c43.7 43.7 101.9 67.8 163.7 67.8 51.2 0 99.8-16.5 139.9-47l88.5 80.5c3.6 3.2 9.1 3 12.3-0.6L952 890c3.3-3.5 3.1-9-0.5-12.3z m-282.2-54.3c-83.6 0-151.6-68-151.6-151.6s68-151.6 151.6-151.6 151.6 68 151.6 151.6c-0.1 83.6-68.1 151.6-151.6 151.6z" p-id="2324"></path><path d="M394.5 877.3H168.4V142.9h673.8v205.8c0 4.8 3.9 8.7 8.7 8.7h62.5c4.8 0 8.7-3.9 8.7-8.7V102.9c0-22.1-17.9-40-40-40H128.4c-22.1 0-40 17.9-40 40v814.4c0 22.1 17.9 40 40 40h266.1c4.8 0 8.7-3.9 8.7-8.7V886c0.1-4.8-3.8-8.7-8.7-8.7z" p-id="2325"></path><path d="M277.1 202.3c-4.8 0-8.7 3.9-8.7 8.7v62.5c0 4.8 3.9 8.7 8.7 8.7h450.5c4.8 0 8.7-3.9 8.7-8.7V211c0-4.8-3.9-8.7-8.7-8.7H277.1zM408.5 393.8H280.9c-4.8 0-8.7 3.9-8.7 8.7V465c0 4.8 3.9 8.7 8.7 8.7h127.6c4.8 0 8.7-3.9 8.7-8.7v-62.5c0-4.7-3.9-8.7-8.7-8.7z" p-id="2326"></path></svg>