<?xml version="1.0" standalone="no"?><!DOCTYPE svg PUBLIC "-//W3C//DTD SVG 1.1//EN" "http://www.w3.org/Graphics/SVG/1.1/DTD/svg11.dtd"><svg t="1580359575512" class="icon" viewBox="0 0 1024 1024" version="1.1" xmlns="http://www.w3.org/2000/svg" p-id="3323" xmlns:xlink="http://www.w3.org/1999/xlink" width="200" height="200"><defs><style type="text/css"></style></defs><path d="M833.443 64.05h-64.562v215.673c0 104.513-56.7 183.583-178.284 245.487C716.808 589.068 769.89 667.513 769.89 784.55c0 76.235-0.352 140.19-0.592 175.337h64.146c17.694 0 32.025 14.315 32.025 32.025 0 17.694-14.331 32.025-32.025 32.025H190.557c-17.694 0-32.025-14.331-32.025-32.025 0-17.71 14.331-32.025 32.025-32.025h66.02c-0.24-35.148-0.593-99.102-0.593-175.337 0-117.036 52.345-195.48 178.347-259.339-121.375-61.904-177.338-140.974-177.338-245.487V64.05h-66.436c-17.694 0-32.025-14.315-32.025-32.025C158.532 14.331 172.863 0 190.557 0h642.886c17.694 0 32.025 14.331 32.025 32.025 0 17.71-14.331 32.025-32.025 32.025zM320.034 784.549c0 76.38 0.352 140.398 0.592 175.337h384.621c0.24-34.94 0.592-98.957 0.592-175.337 0-89.078-33.161-158.204-193.399-224.656-160.189 66.452-192.406 135.578-192.406 224.656zM704.831 64.05H321.043v215.673c0 61.456 20.672 140.59 191.397 210.772 170.758-70.183 192.39-149.316 192.39-210.772V64.05z" p-id="3324"></path></svg>