<?xml version="1.0" standalone="no"?><!DOCTYPE svg PUBLIC "-//W3C//DTD SVG 1.1//EN" "http://www.w3.org/Graphics/SVG/1.1/DTD/svg11.dtd"><svg t="1580360037279" class="icon" viewBox="0 0 1024 1024" version="1.1" xmlns="http://www.w3.org/2000/svg" p-id="3823" xmlns:xlink="http://www.w3.org/1999/xlink" width="200" height="200"><defs><style type="text/css"></style></defs><path d="M512.1 952.2c-60.2 0-118.6-11.8-173.6-35.1-53.1-22.5-100.8-54.6-141.7-95.5-40.9-40.9-73.1-88.6-95.5-141.7-23.3-55-35.1-113.4-35.1-173.6S78 387.7 101.3 332.7c22.5-53.1 54.6-100.8 95.5-141.7s88.6-73.1 141.7-95.5c55-23.3 113.4-35.1 173.6-35.1 77 0 152.6 19.9 219.2 57.5 4.1 2.3 5.5 7.6 3.1 11.6l-21.9 37.1c-2.3 4-7.4 5.3-11.4 3-57.4-32.3-122.5-49.3-188.9-49.3-212.8 0-385.9 173.1-385.9 385.9 0 212.8 173.1 385.9 385.9 385.9 186.1 0 347.9-136.4 380.1-318.6 0.8-4.7 5.2-7.8 9.9-7.1l42.1 6.5c4.8 0.7 8.1 5.3 7.3 10.1-17.5 100.8-69.7 193-147.5 260.5-81.2 70.1-184.8 108.7-292 108.7z" p-id="3824"></path></svg>